<?xml version="1.0" encoding="UTF-8" standalone="no"?><!-- Generator: Gravit.io --><svg xmlns="http://www.w3.org/2000/svg" xmlns:xlink="http://www.w3.org/1999/xlink" style="isolation:isolate" viewBox="0 0 1024 1024" width="1024pt" height="1024pt"><defs><clipPath id="_clipPath_dDqFFHqhjQghi0zdGa4jgbUuRAj1NBqd"><rect width="1024" height="1024"/></clipPath></defs><g clip-path="url(#_clipPath_dDqFFHqhjQghi0zdGa4jgbUuRAj1NBqd)"><rect width="1024" height="1024" style="fill:rgb(105,1,1)" fill-opacity="0"/><g><circle vector-effect="non-scaling-stroke" cx="512" cy="512" r="393.9913998896519" fill="rgb(151,99,4)"/><path d=" M 801.694 506.719 C 801.694 282.272 667.13 136.891 713.443 166.472 C 875.796 270.173 905.991 282.272 905.991 506.719 C 905.991 731.166 903.147 689.166 801.694 798.166 C 637.475 974.601 801.694 731.166 801.694 506.719 Z " fill="rgb(128,84,4)"/><path d=" M 572.011 422.117 L 572.011 422.117 L 572.011 422.117 Q 572.011 406.559 559.046 395.446 L 559.046 395.446 L 559.046 395.446 Q 546.08 384.333 528.299 384.333 L 528.299 384.333 L 528.299 384.333 Q 492.737 384.333 469.77 424.71 L 469.77 424.71 L 469.77 424.71 Q 446.803 465.088 446.803 516.208 L 446.803 516.208 L 446.803 516.208 Q 446.803 555.475 461.621 586.962 L 461.621 586.962 L 461.621 586.962 Q 476.438 618.449 504.591 636.971 L 504.591 636.971 L 504.591 636.971 Q 532.745 655.492 569.788 655.492 L 569.788 655.492 L 569.788 655.492 Q 597.2 655.492 622.39 644.75 L 622.39 644.75 L 622.39 644.75 Q 647.58 634.007 663.138 621.042 L 663.138 621.042 L 663.138 621.042 Q 678.697 608.077 695.366 597.334 L 695.366 597.334 L 695.366 597.334 Q 712.036 586.591 724.631 586.591 L 724.631 586.591 L 724.631 586.591 Q 740.93 586.591 752.784 599.556 L 752.784 599.556 L 752.784 599.556 Q 764.638 612.522 764.638 626.598 L 764.638 626.598 L 764.638 626.598 Q 764.638 642.157 755.377 662.901 L 755.377 662.901 L 755.377 662.901 Q 746.116 683.646 726.113 706.983 L 726.113 706.983 L 726.113 706.983 Q 706.109 730.321 679.437 749.954 L 679.437 749.954 L 679.437 749.954 Q 652.766 769.587 613.129 782.552 L 613.129 782.552 L 613.129 782.552 Q 573.492 795.518 529.781 795.518 L 529.781 795.518 L 529.781 795.518 Q 471.993 795.518 422.725 778.107 L 422.725 778.107 L 422.725 778.107 Q 373.457 760.697 337.154 728.469 L 337.154 728.469 L 337.154 728.469 Q 300.851 696.241 280.107 647.343 L 280.107 647.343 L 280.107 647.343 Q 259.362 598.445 259.362 537.694 L 259.362 537.694 L 259.362 537.694 Q 259.362 417.672 331.227 348.03 L 331.227 348.03 L 331.227 348.03 Q 403.092 278.388 519.409 278.388 L 519.409 278.388 L 519.409 278.388 Q 578.679 278.388 629.058 298.392 L 629.058 298.392 L 629.058 298.392 Q 679.437 318.395 709.072 353.957 L 709.072 353.957 L 709.072 353.957 Q 738.707 389.519 738.707 431.749 L 738.707 431.749 L 738.707 431.749 Q 738.707 480.646 706.109 520.283 L 706.109 520.283 L 706.109 520.283 Q 673.51 559.92 621.649 559.92 L 621.649 559.92 L 621.649 559.92 Q 592.014 559.92 568.306 543.621 L 568.306 543.621 L 568.306 543.621 Q 544.598 527.321 544.598 496.946 L 544.598 496.946 L 544.598 496.946 Q 544.598 482.869 558.305 457.679 L 558.305 457.679 L 558.305 457.679 Q 572.011 432.49 572.011 422.117 Z " fill="rgb(72,47,0)"/><mask id="_mask_MAUnMj6n6oS1xNtDloqIN3BQ0BZXNHkp" x="-200%" y="-200%" width="400%" height="400%"><rect x="-200%" y="-200%" width="400%" height="400%" style="fill:white;"/><path d=" M 118.009 512 C 118.009 294.55 294.55 118.009 512 118.009 C 729.45 118.009 905.991 294.55 905.991 512 C 905.991 729.45 729.45 905.991 512 905.991 C 294.55 905.991 118.009 729.45 118.009 512 Z " fill="black" stroke="none"/></mask><path d=" M 118.009 512 C 118.009 294.55 294.55 118.009 512 118.009 C 729.45 118.009 905.991 294.55 905.991 512 C 905.991 729.45 729.45 905.991 512 905.991 C 294.55 905.991 118.009 729.45 118.009 512 Z " fill="none"/><path d=" M 118.009 512 C 118.009 294.55 294.55 118.009 512 118.009 C 729.45 118.009 905.991 294.55 905.991 512 C 905.991 729.45 729.45 905.991 512 905.991 C 294.55 905.991 118.009 729.45 118.009 512 Z " fill="none" mask="url(#_mask_MAUnMj6n6oS1xNtDloqIN3BQ0BZXNHkp)" vector-effect="non-scaling-stroke" stroke-width="168.103" stroke="rgb(255,217,92)" stroke-linejoin="miter" stroke-linecap="square" stroke-miterlimit="3"/><line x1="846.455" y1="846.455" x2="934.009" y2="934.009" vector-effect="non-scaling-stroke" stroke-width="126.077" stroke="rgb(255,217,92)" stroke-linejoin="round" stroke-linecap="round" stroke-miterlimit="3"/></g></g></svg>